<?xml version="1.0" encoding="UTF-8" standalone="no"?>
<svg
   xmlns:dc="http://purl.org/dc/elements/1.1/"
   xmlns:cc="http://creativecommons.org/ns#"
   xmlns:rdf="http://www.w3.org/1999/02/22-rdf-syntax-ns#"
   xmlns:svg="http://www.w3.org/2000/svg"
   xmlns="http://www.w3.org/2000/svg"
   xmlns:xlink="http://www.w3.org/1999/xlink"
   xmlns:sodipodi="http://sodipodi.sourceforge.net/DTD/sodipodi-0.dtd"
   xmlns:inkscape="http://www.inkscape.org/namespaces/inkscape"
   version="1.1"
   width="100"
   height="66.666664"
   id="svg2"
   inkscape:version="0.48.4 r9939"
   sodipodi:docname="europe.svg">
  <metadata
     id="metadata43">
    <rdf:RDF>
      <cc:Work
         rdf:about="">
        <dc:format>image/svg+xml</dc:format>
        <dc:type
           rdf:resource="http://purl.org/dc/dcmitype/StillImage" />
      </cc:Work>
    </rdf:RDF>
  </metadata>
  <sodipodi:namedview
     pagecolor="#ffffff"
     bordercolor="#666666"
     borderopacity="1"
     objecttolerance="10"
     gridtolerance="10"
     guidetolerance="10"
     inkscape:pageopacity="0"
     inkscape:pageshadow="2"
     inkscape:window-width="958"
     inkscape:window-height="1179"
     id="namedview41"
     showgrid="false"
     fit-margin-top="0"
     fit-margin-left="0"
     fit-margin-right="0"
     fit-margin-bottom="0"
     inkscape:zoom="8.26"
     inkscape:cx="50"
     inkscape:cy="33.333332"
     inkscape:window-x="0"
     inkscape:window-y="19"
     inkscape:window-maximized="0"
     inkscape:current-layer="svg2" />
  <desc
     id="desc4">European flag</desc>
  <defs
     id="defs6">
    <g
       id="s">
      <g
         id="c">
        <path
           id="t"
           d="M 0,0 V 1 H 0.5 z"
           transform="matrix(0.95105652,0.30901699,-0.30901699,0.95105652,0,-1)"
           inkscape:connector-curvature="0" />
        <use
           xlink:href="#t"
           transform="scale(-1,1)"
           id="use11"
           x="0"
           y="0"
           width="810"
           height="540" />
      </g>
      <g
         id="a">
        <use
           xlink:href="#c"
           transform="matrix(0.30901699,0.95105652,-0.95105652,0.30901699,0,0)"
           id="use14"
           x="0"
           y="0"
           width="810"
           height="540" />
        <use
           xlink:href="#c"
           transform="matrix(-0.80901699,0.58778525,-0.58778525,-0.80901699,0,0)"
           id="use16"
           x="0"
           y="0"
           width="810"
           height="540" />
      </g>
      <use
         xlink:href="#a"
         transform="scale(-1,1)"
         id="use18"
         x="0"
         y="0"
         width="810"
         height="540" />
    </g>
  </defs>
  <rect
     width="100"
     height="66.666664"
     id="rect20"
     x="0"
     y="0"
     style="fill:#003399" />
  <g
     transform="matrix(3.7037037,0,0,3.7037037,50,33.333326)"
     id="g22"
     style="fill:#ffcc00">
    <use
       xlink:href="#s"
       y="-6"
       id="use24"
       x="0"
       width="810"
       height="540" />
    <use
       xlink:href="#s"
       y="6"
       id="use26"
       x="0"
       width="810"
       height="540" />
    <g
       id="l">
      <use
         xlink:href="#s"
         x="-6"
         id="use29"
         y="0"
         width="810"
         height="540" />
      <use
         xlink:href="#s"
         transform="matrix(-0.80901699,-0.58778525,0.58778525,-0.80901699,-3,-5.1961524)"
         id="use31"
         x="0"
         y="0"
         width="810"
         height="540" />
      <use
         xlink:href="#s"
         transform="matrix(-0.80901699,0.58778525,-0.58778525,-0.80901699,-5.1961524,-3)"
         id="use33"
         x="0"
         y="0"
         width="810"
         height="540" />
      <use
         xlink:href="#s"
         transform="matrix(0.30901699,0.95105652,-0.95105652,0.30901699,-5.1961524,3)"
         id="use35"
         x="0"
         y="0"
         width="810"
         height="540" />
      <use
         xlink:href="#s"
         transform="matrix(0.30901699,0.95105652,-0.95105652,0.30901699,-3,5.1961524)"
         id="use37"
         x="0"
         y="0"
         width="810"
         height="540" />
    </g>
    <use
       xlink:href="#l"
       transform="scale(-1,1)"
       id="use39"
       x="0"
       y="0"
       width="810"
       height="540" />
  </g>
</svg>
