<?xml version="1.0" encoding="UTF-8" standalone="no"?>
<svg
   xmlns:dc="http://purl.org/dc/elements/1.1/"
   xmlns:cc="http://creativecommons.org/ns#"
   xmlns:rdf="http://www.w3.org/1999/02/22-rdf-syntax-ns#"
   xmlns:svg="http://www.w3.org/2000/svg"
   xmlns="http://www.w3.org/2000/svg"
   xmlns:xlink="http://www.w3.org/1999/xlink"
   xmlns:sodipodi="http://sodipodi.sourceforge.net/DTD/sodipodi-0.dtd"
   xmlns:inkscape="http://www.inkscape.org/namespaces/inkscape"
   width="100"
   height="52.631592"
   id="svg3034"
   version="1.1"
   inkscape:version="0.48.4 r9939"
   sodipodi:docname="usa.svg">
  <metadata
     id="metadata3105">
    <rdf:RDF>
      <cc:Work
         rdf:about="">
        <dc:format>image/svg+xml</dc:format>
        <dc:type
           rdf:resource="http://purl.org/dc/dcmitype/StillImage" />
      </cc:Work>
    </rdf:RDF>
  </metadata>
  <sodipodi:namedview
     pagecolor="#ffffff"
     bordercolor="#666666"
     borderopacity="1"
     objecttolerance="10"
     gridtolerance="10"
     guidetolerance="10"
     inkscape:pageopacity="0"
     inkscape:pageshadow="2"
     inkscape:window-width="958"
     inkscape:window-height="1179"
     id="namedview3103"
     showgrid="false"
     fit-margin-top="0"
     fit-margin-left="0"
     fit-margin-right="0"
     fit-margin-bottom="0"
     inkscape:zoom="0.35465587"
     inkscape:cx="623.13927"
     inkscape:cy="325"
     inkscape:window-x="0"
     inkscape:window-y="19"
     inkscape:window-maximized="0"
     inkscape:current-layer="svg3034" />
  <defs
     id="defs3036">
    <polygon
       id="pt"
       points="0.16245985,0 -0.16245985,0 0,-0.5 "
       transform="scale(0.0616,0.0616)"
       style="fill:#ffffff" />
    <g
       id="star">
      <use
         xlink:href="#pt"
         transform="matrix(-0.80901699,-0.58778525,0.58778525,-0.80901699,0,0)"
         id="use3040"
         x="0"
         y="0"
         width="1235"
         height="650" />
      <use
         xlink:href="#pt"
         transform="matrix(0.30901699,-0.95105652,0.95105652,0.30901699,0,0)"
         id="use3042"
         x="0"
         y="0"
         width="1235"
         height="650" />
      <use
         xlink:href="#pt"
         id="use3044"
         x="0"
         y="0"
         width="1235"
         height="650" />
      <use
         xlink:href="#pt"
         transform="matrix(0.30901699,0.95105652,-0.95105652,0.30901699,0,0)"
         id="use3046"
         x="0"
         y="0"
         width="1235"
         height="650" />
      <use
         xlink:href="#pt"
         transform="matrix(-0.80901699,0.58778525,-0.58778525,-0.80901699,0,0)"
         id="use3048"
         x="0"
         y="0"
         width="1235"
         height="650" />
    </g>
    <g
       id="s5">
      <use
         xlink:href="#star"
         x="-0.252"
         id="use3051"
         y="0"
         width="1235"
         height="650" />
      <use
         xlink:href="#star"
         x="-0.126"
         id="use3053"
         y="0"
         width="1235"
         height="650" />
      <use
         xlink:href="#star"
         id="use3055"
         x="0"
         y="0"
         width="1235"
         height="650" />
      <use
         xlink:href="#star"
         x="0.126"
         id="use3057"
         y="0"
         width="1235"
         height="650" />
      <use
         xlink:href="#star"
         x="0.252"
         id="use3059"
         y="0"
         width="1235"
         height="650" />
    </g>
    <g
       id="s6">
      <use
         xlink:href="#s5"
         x="-0.063000001"
         id="use3062"
         y="0"
         width="1235"
         height="650" />
      <use
         xlink:href="#star"
         x="0.315"
         id="use3064"
         y="0"
         width="1235"
         height="650" />
    </g>
    <g
       id="x4">
      <use
         xlink:href="#s6"
         id="use3067"
         x="0"
         y="0"
         width="1235"
         height="650" />
      <use
         xlink:href="#s5"
         y="0.054000001"
         id="use3069"
         x="0"
         width="1235"
         height="650" />
      <use
         xlink:href="#s6"
         y="0.108"
         id="use3071"
         x="0"
         width="1235"
         height="650" />
      <use
         xlink:href="#s5"
         y="0.162"
         id="use3073"
         x="0"
         width="1235"
         height="650" />
    </g>
    <g
       id="u">
      <use
         xlink:href="#x4"
         y="-0.21600001"
         id="use3076"
         x="0"
         width="1235"
         height="650" />
      <use
         xlink:href="#x4"
         id="use3078"
         x="0"
         y="0"
         width="1235"
         height="650" />
      <use
         xlink:href="#s6"
         y="0.21600001"
         id="use3080"
         x="0"
         width="1235"
         height="650" />
    </g>
    <rect
       id="stripe"
       width="1235"
       height="50"
       x="0"
       y="0"
       style="fill:#bb133e" />
  </defs>
  <rect
     width="100"
     height="52.63158"
     id="rect3083"
     x="0"
     y="0"
     style="fill:#ffffff" />
  <use
     xlink:href="#stripe"
     id="use3085"
     transform="matrix(0.08097166,0,0,0.08097166,0,1.1796875e-5)"
     x="0"
     y="0"
     width="1235"
     height="650" />
  <use
     xlink:href="#stripe"
     y="100"
     id="use3087"
     transform="matrix(0.08097166,0,0,0.08097166,0,1.1796875e-5)"
     x="0"
     width="1235"
     height="650" />
  <use
     xlink:href="#stripe"
     y="200"
     id="use3089"
     transform="matrix(0.08097166,0,0,0.08097166,0,1.1796875e-5)"
     x="0"
     width="1235"
     height="650" />
  <use
     xlink:href="#stripe"
     y="300"
     id="use3091"
     transform="matrix(0.08097166,0,0,0.08097166,0,1.1796875e-5)"
     x="0"
     width="1235"
     height="650" />
  <use
     xlink:href="#stripe"
     y="400"
     id="use3093"
     transform="matrix(0.08097166,0,0,0.08097166,0,1.1796875e-5)"
     x="0"
     width="1235"
     height="650" />
  <use
     xlink:href="#stripe"
     y="500"
     id="use3095"
     transform="matrix(0.08097166,0,0,0.08097166,0,1.1796875e-5)"
     x="0"
     width="1235"
     height="650" />
  <use
     xlink:href="#stripe"
     y="600"
     id="use3097"
     transform="matrix(0.08097166,0,0,0.08097166,0,1.1796875e-5)"
     x="0"
     width="1235"
     height="650" />
  <rect
     width="40"
     height="28.34008"
     id="rect3099"
     x="0"
     y="0"
     style="fill:#002664" />
  <use
     xlink:href="#u"
     transform="matrix(52.631579,0,0,52.631579,20,14.170052)"
     id="use3101"
     x="0"
     y="0"
     width="1235"
     height="650" />
</svg>
